<?xml version="1.0" encoding="utf-8"?>
<!-- Generator: Adobe Illustrator 23.0.3, SVG Export Plug-In . SVG Version: 6.00 Build 0)  -->
<svg version="1.1" id="Layer_1" xmlns="http://www.w3.org/2000/svg" xmlns:xlink="http://www.w3.org/1999/xlink" x="0px" y="0px"
	 viewBox="0 0 40 40" style="enable-background:new 0 0 40 40;" xml:space="preserve">
<style type="text/css">
	.st0{clip-path:url(#SVGID_2_);fill:#FFE5AD;}
	.st1{clip-path:url(#SVGID_2_);fill:#FACA66;}
	.st2{clip-path:url(#SVGID_2_);fill:#F7A542;}
	.st3{fill-rule:evenodd;clip-rule:evenodd;fill:#FFFFFF;}
	.st4{fill:#E6E7E7;}
	.st5{fill:#010101;}
	.st6{fill:#FFFFFF;}
	.st7{clip-path:url(#SVGID_4_);fill:#010101;}
	.st8{clip-path:url(#SVGID_4_);fill:#FFFFFF;}
	.st9{fill:#A3D6B2;}
	.st10{fill:#82AD8D;}
	.st11{fill:#C13A2D;}
	.st12{fill:#F15F4E;}
	.st13{fill:#595A5C;}
	.st14{fill-rule:evenodd;clip-rule:evenodd;fill:#595A5C;}
	.st15{fill-rule:evenodd;clip-rule:evenodd;fill:#010101;}
</style>
<g>
	<g>
		<defs>
			<polygon id="SVGID_1_" points="4.61,10.99 20.22,1.97 35.83,10.99 35.83,29.02 20.22,38.03 4.61,29.02 			"/>
		</defs>
		<clipPath id="SVGID_2_">
			<use xlink:href="#SVGID_1_"  style="overflow:visible;"/>
		</clipPath>
		<rect x="3.94" y="19.9" class="st0" width="32.5" height="9.12"/>
		<rect x="3.94" y="10.99" class="st1" width="32.5" height="8.91"/>
		<rect x="3.94" y="1.97" class="st2" width="32.5" height="9.01"/>
	</g>
	<path class="st3" d="M20.22,25.33c-5.39,0-9.77-4.39-9.77-9.78c0-5.39,4.38-9.78,9.77-9.78s9.77,4.39,9.77,9.78
		C29.99,20.94,25.61,25.33,20.22,25.33z"/>
	<polygon class="st4" points="19.07,13.65 20.22,10.56 21.37,13.65 	"/>
	<polygon class="st4" points="22.06,14.34 25.15,15.49 22.06,16.63 	"/>
	<polygon class="st4" points="21.37,17.33 20.22,20.41 19.07,17.33 	"/>
	<polygon class="st4" points="18.38,16.63 15.29,15.49 18.38,14.34 	"/>
	<path class="st5" d="M7.33,19.24c0.56,0,0.99-0.16,1.28-0.48c0.29-0.32,0.44-0.77,0.44-1.35v-1.06H7.95v1.14
		c0,0.45-0.2,0.68-0.59,0.68c-0.39,0-0.59-0.23-0.59-0.68v-4.17c0-0.46,0.2-0.69,0.59-0.69c0.39,0,0.59,0.23,0.59,0.69v0.86h1.11
		V13.4c0-0.58-0.15-1.03-0.44-1.35c-0.3-0.32-0.72-0.48-1.28-0.48c-0.56,0-0.99,0.16-1.28,0.48S5.6,12.81,5.6,13.4v4.01
		c0,0.58,0.15,1.03,0.44,1.35S6.77,19.24,7.33,19.24z"/>
	<polygon class="st5" points="21.48,6.42 20.22,8.6 18.96,6.42 	"/>
	<polygon class="st5" points="18.96,24.67 20.22,22.49 21.48,24.67 	"/>
	<path class="st5" d="M20.22,5.11c-5.75,0-10.43,4.68-10.43,10.44c0,5.76,4.68,10.44,10.43,10.44s10.43-4.68,10.43-10.44
		C30.65,9.79,25.97,5.11,20.22,5.11z M20.22,24.67c-4.7,0-8.58-3.59-9.06-8.17l1.65-0.95l-1.65-0.95c0.48-4.58,4.36-8.17,9.06-8.17
		c4.7,0,8.58,3.58,9.06,8.17l-1.65,0.96l1.65,0.96C28.8,21.08,24.92,24.67,20.22,24.67z"/>
	<path class="st5" d="M19.95,24.1l0.03-1.31h0.02c0.15,0,0.3,0.01,0.44,0l0.04,1.31C20.29,24.11,20.12,24.11,19.95,24.1z
		 M18.78,23.99c-0.18-0.03-0.35-0.07-0.53-0.11l0.3-1.28c0.15,0.03,0.3,0.06,0.45,0.09L18.78,23.99z M21.61,24l-0.21-1.3
		c0.15-0.02,0.3-0.05,0.45-0.09l0.29,1.28C21.97,23.93,21.79,23.97,21.61,24z M17.15,23.54c-0.17-0.06-0.33-0.13-0.5-0.21l0.55-1.19
		c0.14,0.06,0.28,0.12,0.42,0.18L17.15,23.54z M15.65,22.78c-0.15-0.1-0.3-0.2-0.45-0.3l0.77-1.07c0.12,0.09,0.25,0.17,0.38,0.26
		L15.65,22.78z M24.76,22.82l-0.69-1.12c0.13-0.08,0.26-0.17,0.38-0.25l0.76,1.07C25.06,22.62,24.91,22.72,24.76,22.82z M26.1,21.79
		l-0.9-0.96c0.11-0.1,0.22-0.21,0.33-0.32l0.95,0.9C26.36,21.54,26.23,21.67,26.1,21.79z M13.21,20.48c-0.1-0.15-0.2-0.3-0.3-0.45
		l1.12-0.69c0.08,0.13,0.17,0.26,0.25,0.38L13.21,20.48z M27.21,20.52l-1.07-0.77c0.09-0.12,0.17-0.25,0.26-0.38l1.11,0.7
		C27.42,20.23,27.32,20.38,27.21,20.52z M12.37,19.01c-0.07-0.16-0.14-0.33-0.21-0.5l1.23-0.46c0.05,0.14,0.11,0.28,0.17,0.42
		L12.37,19.01z M28.06,19.07l-1.19-0.55c0.06-0.14,0.12-0.28,0.18-0.42l1.23,0.47C28.21,18.74,28.14,18.9,28.06,19.07z M11.83,17.41
		c-0.04-0.17-0.07-0.35-0.1-0.53l1.3-0.21c0.02,0.15,0.05,0.3,0.09,0.45L11.83,17.41z M28.61,17.47l-1.28-0.3
		c0.03-0.15,0.07-0.3,0.09-0.45l1.29,0.22C28.69,17.12,28.65,17.3,28.61,17.47z M13.03,14.27l-1.3-0.22
		c0.03-0.18,0.07-0.35,0.11-0.53l1.28,0.3C13.09,13.97,13.06,14.12,13.03,14.27z M27.43,14.32c-0.02-0.15-0.05-0.3-0.09-0.45
		l1.28-0.29c0.04,0.17,0.07,0.35,0.1,0.53L27.43,14.32z M13.41,12.89l-1.23-0.47c0.06-0.17,0.13-0.33,0.21-0.5l1.2,0.54
		C13.52,12.61,13.46,12.75,13.41,12.89z M27.07,12.94c-0.05-0.14-0.11-0.29-0.17-0.42l1.2-0.54c0.07,0.16,0.14,0.33,0.21,0.5
		L27.07,12.94z M14.04,11.61l-1.11-0.7c0.1-0.15,0.2-0.3,0.3-0.45l1.07,0.77C14.21,11.35,14.13,11.48,14.04,11.61z M26.44,11.65
		c-0.08-0.13-0.17-0.26-0.25-0.38l1.07-0.76c0.1,0.15,0.2,0.3,0.3,0.45L26.44,11.65z M14.92,10.48l-0.96-0.9
		c0.12-0.13,0.25-0.26,0.38-0.38l0.9,0.96C15.13,10.26,15.02,10.37,14.92,10.48z M16,9.54l-0.76-1.07c0.15-0.1,0.3-0.21,0.45-0.3
		l0.7,1.11C16.25,9.36,16.12,9.45,16,9.54z M24.5,9.57c-0.12-0.09-0.25-0.18-0.38-0.26l0.7-1.11c0.15,0.1,0.3,0.2,0.45,0.3
		L24.5,9.57z M17.24,8.82l-0.54-1.2c0.16-0.07,0.33-0.14,0.5-0.21l0.46,1.23C17.52,8.7,17.38,8.76,17.24,8.82z M23.27,8.84
		c-0.14-0.06-0.28-0.12-0.42-0.18l0.47-1.23c0.17,0.06,0.33,0.13,0.5,0.21L23.27,8.84z"/>
	<path class="st5" d="M14.86,17.6l-0.12-0.23l-0.08,0.03l0.1,0.21l0.02,0.13l-0.07,0.1l-0.19,0.1L14.32,18l-0.11-0.02l-0.07-0.11
		l-0.04-0.12l-0.03-0.1l-0.08,0.03L14,17.79l0.04,0.13l0.1,0.15l0.16,0.04c0.07,0,0.15-0.03,0.26-0.07
		c0.11-0.04,0.19-0.09,0.24-0.13l0.08-0.14L14.86,17.6z"/>
	<path class="st5" d="M14.35,15.43l-0.03,0.13l-0.09,0.07c-0.05,0.01-0.12,0.02-0.21,0.02c-0.1,0-0.17-0.01-0.22-0.02l-0.09-0.07
		l-0.02-0.13l0.02-0.13l0.1-0.07c0.05-0.01,0.12-0.02,0.22-0.02c0.09,0,0.16,0.01,0.21,0.02l0.09,0.07L14.35,15.43z M14.46,15.43
		l-0.03-0.2l-0.13-0.11c-0.06-0.03-0.15-0.04-0.28-0.04s-0.21,0.01-0.28,0.03l-0.13,0.11l-0.04,0.19l0.03,0.19l0.13,0.11
		c0.06,0.03,0.16,0.04,0.28,0.04s0.21-0.01,0.28-0.03l0.13-0.11L14.46,15.43z"/>
	<polygon class="st5" points="14.81,13.44 14.86,13.33 14.26,13.07 15.03,12.95 15.07,12.86 14.28,12.51 14.24,12.62 14.84,12.89 
		14.06,13.01 14.03,13.09 	"/>
	<polygon class="st5" points="16.19,11.36 16.27,11.28 15.75,10.73 15.94,10.56 15.86,10.48 15.41,10.92 15.48,10.99 15.67,10.82 	
		"/>
	<path class="st5" d="M18,10.16c0.1-0.04,0.21-0.09,0.33-0.15l-0.04-0.09l-0.31,0.12l-0.07,0.01L17.86,10L17.8,9.84l0.34-0.15
		L18.1,9.61l-0.35,0.13l-0.07-0.17l0.05-0.12l0.31-0.12l-0.04-0.09l-0.05,0.02c-0.11,0.04-0.21,0.07-0.29,0.11l-0.1,0.09l0,0.15
		l0.19,0.47l0.1,0.11L18,10.16z"/>
	<polygon class="st5" points="20.6,8.85 20.47,8.85 20.27,9.19 20.05,8.85 19.92,8.85 20.19,9.28 19.92,9.71 20.05,9.71 20.25,9.38 
		20.46,9.72 20.59,9.72 20.33,9.29 	"/>
	<polygon class="st5" points="22.38,10.13 22.49,10.17 22.78,9.47 23.01,9.57 23.05,9.48 22.47,9.23 22.43,9.33 22.67,9.43 	"/>
	<path class="st5" d="M25.58,13.05l0.25-0.11l0.08,0.18l0,0.1l-0.07,0.07l-0.12,0.01l-0.07-0.08L25.58,13.05z M25.91,12.9l0.23-0.1
		l0.07,0.17l-0.07,0.15l-0.1,0.01l-0.06-0.06L25.91,12.9z M25.44,12.98l0.12,0.29l0.12,0.14l0.18-0.02l0.11-0.09l0.02-0.12
		l0.09,0.05l0.12-0.02c0.13-0.06,0.17-0.15,0.11-0.28l-0.12-0.28L25.44,12.98z"/>
	<path class="st5" d="M25.99,15.13c0.01,0.1,0.03,0.17,0.07,0.22c0.04,0.05,0.11,0.07,0.21,0.07l0.56-0.03l-0.01-0.11l-0.56,0.03
		l-0.13-0.04l-0.05-0.14l0.03-0.15l0.12-0.06l0.56-0.03l-0.01-0.11l-0.56,0.03c-0.1,0.01-0.16,0.04-0.2,0.09
		C26,14.95,25.98,15.03,25.99,15.13z"/>
	<path class="st5" d="M25.92,16.97l0.59,0.17l-0.06,0.2l-0.06,0.09l-0.11,0.03l-0.18-0.03c-0.2-0.06-0.28-0.14-0.25-0.25
		L25.92,16.97z M25.86,16.83l-0.09,0.32l0.04,0.23c0.05,0.06,0.14,0.11,0.27,0.15c0.13,0.04,0.23,0.05,0.31,0.03
		c0.08-0.02,0.13-0.08,0.16-0.17l0.09-0.32L25.86,16.83z"/>
	<path class="st5" d="M25.07,18.82l0.5,0.37l-0.12,0.17l-0.08,0.06l-0.11-0.01l-0.16-0.09c-0.16-0.12-0.21-0.23-0.15-0.32
		L25.07,18.82z M25.06,18.67l-0.2,0.27l-0.04,0.23c0.03,0.08,0.1,0.16,0.2,0.23c0.11,0.08,0.2,0.12,0.28,0.13l0.21-0.11l0.2-0.26
		L25.06,18.67z"/>
	<polygon class="st5" points="23.53,20.23 23.44,20.29 23.58,20.51 23.68,21.11 23.78,21.04 23.69,20.57 24.1,20.82 24.2,20.76 
		23.68,20.44 	"/>
	<path class="st6" d="M20.22,38.69c-0.11,0-0.22-0.03-0.32-0.08L5.51,30.49c-0.22-0.12-0.35-0.36-0.33-0.61s0.17-0.47,0.41-0.57
		l10.85-4.45l1.37-2.31c0.12-0.2,0.33-0.32,0.56-0.32l0.05,0c4.54,0.33,6.77,1.43,11.53,4.27c3.06,1.83,5.02,2.48,5.04,2.49
		c0.25,0.08,0.42,0.3,0.45,0.56c0.03,0.26-0.1,0.51-0.32,0.64L20.55,38.6C20.45,38.66,20.33,38.69,20.22,38.69z"/>
	<path class="st5" d="M36.82,9.28L21.21,0.27C20.9,0.09,20.56,0,20.22,0c-0.34,0-0.68,0.09-0.99,0.26L3.62,9.28
		c-0.61,0.35-0.99,1-0.99,1.71v18.03c0,0.7,0.38,1.35,0.99,1.71l15.61,9.01c0.3,0.18,0.65,0.26,0.99,0.26
		c0.34,0,0.68-0.09,0.99-0.26l15.61-9.01c0.61-0.35,0.99-1,0.99-1.71V10.99C37.8,10.28,37.43,9.63,36.82,9.28z M28.07,33.49
		c-0.75-0.07-1.49-0.16-2.22-0.32c-0.19-0.03-0.38-0.09-0.57-0.13L25,32.98l-0.28-0.08c-0.19-0.05-0.38-0.11-0.57-0.15
		c-0.19-0.07-0.37-0.13-0.56-0.18c-0.09-0.03-0.19-0.06-0.29-0.08l-0.28-0.1c-0.19-0.07-0.38-0.13-0.58-0.2
		c-0.39-0.13-0.77-0.29-1.2-0.41c0.13,0.17,0.27,0.34,0.42,0.5c0.15,0.16,0.29,0.33,0.46,0.46c0.17,0.14,0.33,0.27,0.51,0.41
		l0.26,0.19c0.09,0.06,0.18,0.11,0.28,0.17c0.19,0.11,0.38,0.22,0.57,0.32c0.2,0.09,0.4,0.17,0.6,0.26c0.1,0.04,0.2,0.08,0.31,0.12
		l0.32,0.09c0.21,0.05,0.42,0.13,0.64,0.17c0.21,0.04,0.42,0.08,0.63,0.1l-5.99,3.47l-2.57-1.48c0.18-0.02,0.36-0.02,0.55-0.05
		c0.72-0.1,1.43-0.35,2.06-0.71c0.62-0.37,1.2-0.86,1.55-1.51c-0.69,0.22-1.32,0.4-1.94,0.56c-0.62,0.15-1.23,0.28-1.86,0.37
		c-0.15,0.03-0.31,0.04-0.47,0.06l-0.23,0.03l-0.24,0.02c-0.16,0.02-0.32,0.03-0.47,0.05c-0.16,0-0.32,0.01-0.48,0.03l-0.24,0.02
		l-0.19,0.01l-9.65-5.57l10.85-4.45l1.48-2.5c0.5,0.04,0.97,0.08,1.42,0.14c0.37,0.24,0.73,0.49,1.07,0.76
		c0.52,0.41,1.01,0.84,1.42,1.33c0.4,0.48,0.73,1,0.91,1.54c0.09,0.27,0.14,0.55,0.16,0.83l0.02,0.5c0,0.1,0.01,0.2,0.03,0.3
		c0.02,0.1,0.02,0.2,0.05,0.3c0.08,0.4,0.24,0.8,0.46,1.16c0.23,0.36,0.53,0.67,0.87,0.9c0.69,0.47,1.47,0.67,2.22,0.69
		c0.75,0.03,1.48-0.09,2.16-0.33c0.67-0.25,1.33-0.6,1.77-1.15c-0.62,0.31-1.27,0.46-1.92,0.53c-0.65,0.07-1.3,0.05-1.9-0.07
		c-0.61-0.11-1.17-0.33-1.59-0.67c-0.42-0.33-0.68-0.78-0.79-1.32l-0.03-0.21l-0.02-0.21l-0.03-0.52c-0.04-0.4-0.14-0.79-0.29-1.16
		c-0.3-0.74-0.79-1.35-1.34-1.83c-0.54-0.47-1.14-0.84-1.76-1.12c2.77,0.57,4.85,1.7,8.37,3.8c3.18,1.89,5.17,2.55,5.17,2.55
		L28.07,33.49z M35.83,28.84c-0.16-0.22-0.38-0.39-0.65-0.47c-0.02-0.01-1.92-0.65-4.91-2.43c-4.86-2.9-7.14-4.02-11.82-4.36
		l-0.09,0c-0.46,0-0.89,0.24-1.13,0.65l-1.25,2.12L5.33,28.71c-0.22,0.09-0.4,0.24-0.54,0.42l-0.18-0.11V10.99l15.61-9.01
		l15.61,9.01V28.84z"/>
	<g>
		<defs>
			<path id="SVGID_3_" d="M12.51,33.6c-1.67,0-2.77-0.48-2.82-0.5l-0.07-0.04l-5.91-3.54l0.17-1.2c0.06-0.02,5.62-1.5,8.29-2.82
				c2.71-1.34,5.91-3.21,5.94-3.23l0.86,0.17c0.08,0.11,2.01,2.74,1.6,5.55c-0.21,1.41-0.96,2.61-2.23,3.55
				C16.55,32.89,14.53,33.6,12.51,33.6L12.51,33.6z"/>
		</defs>
		<clipPath id="SVGID_4_">
			<use xlink:href="#SVGID_3_"  style="overflow:visible;"/>
		</clipPath>
		<rect x="9.67" y="26.54" class="st7" width="18.19" height="0.79"/>
		<rect x="9.67" y="27.33" class="st8" width="18.19" height="0.79"/>
		<rect x="9.67" y="27.98" class="st8" width="18.19" height="0.79"/>
		<rect x="9.67" y="27.65" class="st7" width="18.19" height="0.79"/>
		<rect x="9.67" y="24.31" class="st7" width="18.19" height="0.79"/>
		<rect x="9.67" y="25.1" class="st8" width="18.19" height="0.79"/>
		<rect x="9.67" y="25.75" class="st8" width="18.19" height="0.79"/>
		<rect x="9.67" y="25.43" class="st7" width="18.19" height="0.79"/>
		<rect x="9.67" y="22.09" class="st7" width="18.19" height="0.79"/>
		<rect x="9.67" y="22.88" class="st8" width="18.19" height="0.79"/>
		<rect x="9.67" y="23.53" class="st8" width="18.19" height="0.79"/>
		<rect x="9.67" y="23.2" class="st7" width="18.19" height="0.79"/>
		<rect x="9.67" y="19.86" class="st7" width="18.19" height="0.79"/>
		<rect x="9.67" y="20.65" class="st8" width="18.19" height="0.79"/>
		<rect x="9.67" y="21.3" class="st8" width="18.19" height="0.79"/>
		<rect x="9.67" y="20.97" class="st7" width="18.19" height="0.79"/>
		<rect x="9.67" y="17.64" class="st7" width="18.19" height="0.79"/>
		<rect x="9.67" y="18.42" class="st8" width="18.19" height="0.79"/>
		<rect x="9.67" y="19.07" class="st8" width="18.19" height="0.79"/>
		<rect x="9.67" y="18.75" class="st7" width="18.19" height="0.79"/>
		<rect x="9.67" y="37.67" class="st7" width="18.19" height="0.79"/>
		<rect x="9.67" y="38.46" class="st8" width="18.19" height="0.79"/>
		<rect x="9.67" y="39.11" class="st8" width="18.19" height="0.79"/>
		<rect x="9.67" y="38.78" class="st7" width="18.19" height="0.79"/>
		<rect x="9.67" y="35.44" class="st7" width="18.19" height="0.79"/>
		<rect x="9.67" y="36.23" class="st8" width="18.19" height="0.79"/>
		<rect x="9.67" y="36.88" class="st8" width="18.19" height="0.79"/>
		<rect x="9.67" y="36.56" class="st7" width="18.19" height="0.79"/>
		<rect x="9.67" y="33.22" class="st7" width="18.19" height="0.79"/>
		<rect x="9.67" y="34.01" class="st8" width="18.19" height="0.79"/>
		<rect x="9.67" y="34.66" class="st8" width="18.19" height="0.79"/>
		<rect x="9.67" y="34.33" class="st7" width="18.19" height="0.79"/>
		<rect x="9.67" y="30.99" class="st7" width="18.19" height="0.79"/>
		<rect x="9.67" y="31.78" class="st8" width="18.19" height="0.79"/>
		<rect x="9.67" y="32.43" class="st8" width="18.19" height="0.79"/>
		<rect x="9.67" y="32.1" class="st7" width="18.19" height="0.79"/>
		<rect x="9.67" y="28.77" class="st7" width="18.19" height="0.79"/>
		<rect x="9.67" y="29.55" class="st8" width="18.19" height="0.79"/>
		<rect x="9.67" y="30.2" class="st8" width="18.19" height="0.79"/>
		<rect x="9.67" y="29.88" class="st7" width="18.19" height="0.79"/>
		<rect x="-8.52" y="26.54" class="st7" width="18.19" height="0.79"/>
		<rect x="-8.52" y="27.33" class="st8" width="18.19" height="0.79"/>
		<rect x="-8.52" y="27.98" class="st8" width="18.19" height="0.79"/>
		<rect x="-8.52" y="27.65" class="st7" width="18.19" height="0.79"/>
		<rect x="-8.52" y="24.31" class="st7" width="18.19" height="0.79"/>
		<rect x="-8.52" y="25.1" class="st8" width="18.19" height="0.79"/>
		<rect x="-8.52" y="25.75" class="st8" width="18.19" height="0.79"/>
		<rect x="-8.52" y="25.43" class="st7" width="18.19" height="0.79"/>
		<rect x="-8.52" y="22.09" class="st7" width="18.19" height="0.79"/>
		<rect x="-8.52" y="22.88" class="st8" width="18.19" height="0.79"/>
		<rect x="-8.52" y="23.53" class="st8" width="18.19" height="0.79"/>
		<rect x="-8.52" y="23.2" class="st7" width="18.19" height="0.79"/>
		<rect x="-8.52" y="19.86" class="st7" width="18.19" height="0.79"/>
		<rect x="-8.52" y="20.65" class="st8" width="18.19" height="0.79"/>
		<rect x="-8.52" y="21.3" class="st8" width="18.19" height="0.79"/>
		<rect x="-8.52" y="20.97" class="st7" width="18.19" height="0.79"/>
		<rect x="-8.52" y="17.64" class="st7" width="18.19" height="0.79"/>
		<rect x="-8.52" y="18.42" class="st8" width="18.19" height="0.79"/>
		<rect x="-8.52" y="19.07" class="st8" width="18.19" height="0.79"/>
		<rect x="-8.52" y="18.75" class="st7" width="18.19" height="0.79"/>
		<rect x="-8.52" y="37.67" class="st7" width="18.19" height="0.79"/>
		<rect x="-8.52" y="38.46" class="st8" width="18.19" height="0.79"/>
		<rect x="-8.52" y="39.11" class="st8" width="18.19" height="0.79"/>
		<rect x="-8.52" y="38.78" class="st7" width="18.19" height="0.79"/>
		<rect x="-8.52" y="35.44" class="st7" width="18.19" height="0.79"/>
		<rect x="-8.52" y="36.23" class="st8" width="18.19" height="0.79"/>
		<rect x="-8.52" y="36.88" class="st8" width="18.19" height="0.79"/>
		<rect x="-8.52" y="36.56" class="st7" width="18.19" height="0.79"/>
		<rect x="-8.52" y="33.22" class="st7" width="18.19" height="0.79"/>
		<rect x="-8.52" y="34.01" class="st8" width="18.19" height="0.79"/>
		<rect x="-8.52" y="34.66" class="st8" width="18.19" height="0.79"/>
		<rect x="-8.52" y="34.33" class="st7" width="18.19" height="0.79"/>
		<rect x="-8.52" y="30.99" class="st7" width="18.19" height="0.79"/>
		<rect x="-8.52" y="31.78" class="st8" width="18.19" height="0.79"/>
		<rect x="-8.52" y="32.43" class="st8" width="18.19" height="0.79"/>
		<rect x="-8.52" y="32.1" class="st7" width="18.19" height="0.79"/>
		<rect x="-8.52" y="28.77" class="st7" width="18.19" height="0.79"/>
		<rect x="-8.52" y="29.55" class="st8" width="18.19" height="0.79"/>
		<rect x="-8.52" y="30.2" class="st8" width="18.19" height="0.79"/>
		<rect x="-8.52" y="29.88" class="st7" width="18.19" height="0.79"/>
	</g>
	<path class="st5" d="M18.46,22.84c0,0,3.75,5.03-0.5,8.19c-2.06,1.53-3.99,1.92-5.45,1.92c-1.55,0-2.55-0.45-2.55-0.45l-5.91-3.54
		c0,0,5.65-1.5,8.41-2.87C15.23,24.72,18.46,22.84,18.46,22.84 M17.79,21.7c-0.03,0.02-3.22,1.88-5.9,3.21
		c-2.61,1.29-8.11,2.76-8.17,2.77l-0.34,2.4l5.91,3.54l0.14,0.07c0.13,0.06,1.31,0.56,3.09,0.56c2.16,0,4.31-0.75,6.23-2.18
		c1.42-1.05,2.26-2.4,2.49-3.99c0.45-3.08-1.64-5.92-1.73-6.04L17.79,21.7z"/>
	<path class="st5" d="M32.52,18.06v-2.29h0.52c0.27,0,0.46,0.07,0.58,0.2c0.12,0.13,0.18,0.37,0.18,0.71v0.65
		c0,0.27-0.05,0.46-0.15,0.57c-0.1,0.11-0.25,0.17-0.46,0.17H32.52z M32.52,14.71v-1.97h0.56c0.21,0,0.36,0.06,0.45,0.18
		c0.1,0.12,0.14,0.32,0.14,0.59v0.42c0,0.28-0.06,0.49-0.18,0.61c-0.12,0.12-0.29,0.18-0.53,0.18H32.52z M31.35,19.13h1.84
		c0.58,0,1.02-0.15,1.33-0.45c0.3-0.3,0.45-0.74,0.45-1.32v-0.64c0-0.84-0.29-1.36-0.88-1.56v-0.02c0.26-0.11,0.45-0.28,0.57-0.52
		c0.13-0.24,0.19-0.55,0.19-0.94v-0.3c0-0.58-0.14-1.01-0.42-1.29s-0.72-0.42-1.32-0.42h-1.77V19.13z"/>
	<path class="st9" d="M18.39,14.27l-0.13,0.22l-4.34,7.32l4.74-4.75l1.35-1.35l1.76-1.76c-0.86-0.86-2.25-0.86-3.11,0
		C18.56,14.04,18.47,14.15,18.39,14.27L18.39,14.27L18.39,14.27z"/>
	<path class="st10" d="M21.45,17.32l-0.22,0.13l-7.32,4.35l4.74-4.75l1.35-1.35l1.76-1.76c0.86,0.86,0.87,2.26,0.01,3.12
		C21.68,17.15,21.57,17.24,21.45,17.32L21.45,17.32z"/>
	<path class="st11" d="M22.05,16.72l0.13-0.21l4.34-7.32l-4.75,4.75l-1.35,1.35l-1.76,1.76c0.86,0.86,2.25,0.86,3.11,0
		C21.88,16.95,21.97,16.84,22.05,16.72L22.05,16.72L22.05,16.72z"/>
	<path class="st12" d="M18.99,13.67l0.21-0.13l7.32-4.35l-4.75,4.75l-1.35,1.35l-1.76,1.76c-0.86-0.86-0.87-2.26-0.01-3.12
		C18.76,13.83,18.87,13.75,18.99,13.67L18.99,13.67L18.99,13.67z"/>
	<path class="st5" d="M20.19,16.63c-0.31-0.01-0.59-0.13-0.8-0.36c-0.21-0.22-0.32-0.51-0.31-0.82c0.02-0.62,0.52-1.11,1.14-1.11
		l0.03,0c0.63,0.02,1.13,0.54,1.11,1.18c-0.02,0.62-0.52,1.11-1.14,1.11L20.19,16.63z"/>
	<path class="st13" d="M20.22,14.01c-0.79,0-1.45,0.63-1.47,1.43c-0.02,0.81,0.62,1.49,1.43,1.51l0.04,0c0.79,0,1.45-0.63,1.47-1.43
		c0.02-0.81-0.62-1.49-1.43-1.51L20.22,14.01z"/>
	<path class="st6" d="M20.22,8.38c-1.19,0-2.15-0.97-2.15-2.15s0.97-2.15,2.15-2.15s2.15,0.97,2.15,2.15S21.41,8.38,20.22,8.38z"/>
	<path class="st5" d="M20.22,4.4c1.01,0,1.82,0.82,1.82,1.82s-0.82,1.82-1.82,1.82c-1.01,0-1.82-0.82-1.82-1.82S19.21,4.4,20.22,4.4
		 M20.22,3.74c-1.37,0-2.48,1.11-2.48,2.48s1.11,2.48,2.48,2.48S22.7,7.6,22.7,6.23S21.59,3.74,20.22,3.74z"/>
	<polygon class="st14" points="18.8,6.37 19.35,7.29 19.53,7.29 19.17,6.42 	"/>
	<polygon class="st14" points="21.03,5.78 20.17,5.17 20.87,4.99 21.31,5.81 	"/>
	<polygon class="st15" points="21.53,5.4 21.03,5.78 21.31,5.81 21.71,5.4 	"/>
	<polygon class="st15" points="19.53,7.29 20.87,4.99 20.17,5.17 19.35,7.29 	"/>
</g>
</svg>
